<svg viewBox="0 0 600 600" xmlns="http://www.w3.org/2000/svg">
  <defs>
    <!-- Gradients -->
    <linearGradient id="goldGradient" x1="0%" y1="0%" x2="100%" y2="100%">
      <stop offset="0%" style="stop-color:#f4e5c3;stop-opacity:1" />
      <stop offset="50%" style="stop-color:#d4af37;stop-opacity:1" />
      <stop offset="100%" style="stop-color:#f4e5c3;stop-opacity:1" />
    </linearGradient>
    
    <linearGradient id="roseGoldGradient" x1="0%" y1="0%" x2="100%" y2="100%">
      <stop offset="0%" style="stop-color:#f9d5d3;stop-opacity:1" />
      <stop offset="50%" style="stop-color:#e8b4b8;stop-opacity:1" />
      <stop offset="100%" style="stop-color:#f9d5d3;stop-opacity:1" />
    </linearGradient>
    
    <radialGradient id="pearlGradient" cx="35%" cy="35%">
      <stop offset="0%" style="stop-color:#ffffff;stop-opacity:1" />
      <stop offset="70%" style="stop-color:#f5f5f5;stop-opacity:1" />
      <stop offset="100%" style="stop-color:#e8e8e8;stop-opacity:1" />
    </radialGradient>
    
    <radialGradient id="gemGradient" cx="30%" cy="30%">
      <stop offset="0%" style="stop-color:#ffc0e0;stop-opacity:1" />
      <stop offset="50%" style="stop-color:#ff69b4;stop-opacity:1" />
      <stop offset="100%" style="stop-color:#c71585;stop-opacity:1" />
    </radialGradient>
    
    <linearGradient id="fabricGradient" x1="0%" y1="0%" x2="100%" y2="100%">
      <stop offset="0%" style="stop-color:#e6d5f0;stop-opacity:0.3" />
      <stop offset="100%" style="stop-color:#d4c5e8;stop-opacity:0.3" />
    </linearGradient>
  </defs>
  
  <!-- Background circle -->
  <circle cx="300" cy="300" r="280" fill="#faf8f5" opacity="0.5"/>
  
  <!-- Decorative circles -->
  <circle cx="300" cy="300" r="240" fill="none" stroke="#e8d4c0" stroke-width="1" opacity="0.4"/>
  <circle cx="300" cy="300" r="200" fill="none" stroke="#e8d4c0" stroke-width="1" opacity="0.3"/>
  
  <!-- Elegant woman silhouette with jewelry -->
  <g transform="translate(300, 280)">
    <!-- Head -->
    <ellipse cx="0" cy="-80" rx="45" ry="55" fill="#f5e6d3" opacity="0.9"/>
    
    <!-- Hair bun -->
    <ellipse cx="0" cy="-115" rx="35" ry="25" fill="#8b6f47" opacity="0.8"/>
    
    <!-- Neck -->
    <path d="M -15,-40 L -15,-10 L 15,-10 L 15,-40" fill="#f5e6d3" opacity="0.9"/>
    
    <!-- Necklace -->
    <ellipse cx="0" cy="-12" rx="25" ry="8" fill="none" stroke="url(#goldGradient)" stroke-width="3"/>
    
    <!-- Pendant -->
    <circle cx="0" cy="-5" r="6" fill="url(#gemGradient)"/>
    <path d="M 0,-11 L -4,-5 L 0,2 L 4,-5 Z" fill="url(#gemGradient)" opacity="0.7"/>
    
    <!-- Shoulder/dress suggestion -->
    <path d="M -15,-10 Q -40,20 -60,60 L -40,80 Q -20,40 -15,0 Z" fill="url(#roseGoldGradient)" opacity="0.6"/>
    <path d="M 15,-10 Q 40,20 60,60 L 40,80 Q 20,40 15,0 Z" fill="url(#roseGoldGradient)" opacity="0.6"/>
    
    <!-- Dress bodice -->
    <path d="M -15,0 L -40,80 L 40,80 L 15,0 Z" fill="url(#fabricGradient)"/>
    <path d="M -15,0 L -40,80 L 40,80 L 15,0 Z" fill="none" stroke="#d4c5e8" stroke-width="1" opacity="0.5"/>
    
    <!-- Decorative dress details -->
    <line x1="-25" y1="20" x2="25" y2="20" stroke="#e8d4c0" stroke-width="1" opacity="0.5"/>
    <line x1="-30" y1="40" x2="30" y2="40" stroke="#e8d4c0" stroke-width="1" opacity="0.5"/>
    <line x1="-35" y1="60" x2="35" y2="60" stroke="#e8d4c0" stroke-width="1" opacity="0.5"/>
  </g>
  
  <!-- Floating jewelry elements -->
  
  <!-- Pearl earring 1 -->
  <g transform="translate(150, 200)">
    <circle cx="0" cy="0" r="12" fill="url(#pearlGradient)"/>
    <circle cx="-3" cy="-3" r="4" fill="#ffffff" opacity="0.6"/>
    <line x1="0" y1="-15" x2="0" y2="-5" stroke="url(#goldGradient)" stroke-width="2"/>
  </g>
  
  <!-- Pearl earring 2 -->
  <g transform="translate(450, 200)">
    <circle cx="0" cy="0" r="12" fill="url(#pearlGradient)"/>
    <circle cx="-3" cy="-3" r="4" fill="#ffffff" opacity="0.6"/>
    <line x1="0" y1="-15" x2="0" y2="-5" stroke="url(#goldGradient)" stroke-width="2"/>
  </g>
  
  <!-- Ring -->
  <g transform="translate(120, 400)">
    <ellipse cx="0" cy="0" rx="20" ry="6" fill="none" stroke="url(#goldGradient)" stroke-width="3"/>
    <path d="M -8,-6 L -6,-18 L 6,-18 L 8,-6" fill="url(#goldGradient)"/>
    <circle cx="0" cy="-20" r="8" fill="url(#gemGradient)"/>
    <path d="M 0,-26 L -5,-20 L 0,-14 L 5,-20 Z" fill="#ff69b4" opacity="0.5"/>
  </g>
  
  <!-- Bracelet -->
  <g transform="translate(480, 420)">
    <ellipse cx="0" cy="0" rx="30" ry="10" fill="none" stroke="url(#roseGoldGradient)" stroke-width="3"/>
    <circle cx="-20" cy="0" r="4" fill="url(#pearlGradient)"/>
    <circle cx="-10" cy="2" r="4" fill="url(#pearlGradient)"/>
    <circle cx="0" cy="3" r="4" fill="url(#pearlGradient)"/>
    <circle cx="10" cy="2" r="4" fill="url(#pearlGradient)"/>
    <circle cx="20" cy="0" r="4" fill="url(#pearlGradient)"/>
  </g>
  
  <!-- Decorative sparkles -->
  <g opacity="0.6">
    <path d="M 100,150 L 102,154 L 106,156 L 102,158 L 100,162 L 98,158 L 94,156 L 98,154 Z" fill="#d4af37"/>
    <path d="M 500,150 L 502,154 L 506,156 L 502,158 L 500,162 L 498,158 L 494,156 L 498,154 Z" fill="#d4af37"/>
    <path d="M 180,480 L 182,484 L 186,486 L 182,488 L 180,492 L 178,488 L 174,486 L 178,484 Z" fill="#ff69b4"/>
    <path d="M 420,480 L 422,484 L 426,486 L 422,488 L 420,492 L 418,488 L 414,486 L 418,484 Z" fill="#ff69b4"/>
    <path d="M 300,100 L 303,106 L 309,109 L 303,112 L 300,118 L 297,112 L 291,109 L 297,106 Z" fill="#e8b4b8"/>
  </g>
  
  <!-- Floral embellishments -->
  <g transform="translate(80, 280)" opacity="0.5">
    <circle cx="0" cy="0" r="3" fill="#ff69b4"/>
    <circle cx="6" cy="0" r="3" fill="#ff69b4"/>
    <circle cx="3" cy="-5" r="3" fill="#ff69b4"/>
    <circle cx="3" cy="5" r="3" fill="#ff69b4"/>
    <circle cx="-3" cy="-3" r="3" fill="#ff69b4"/>
    <circle cx="9" cy="-3" r="3" fill="#ff69b4"/>
    <circle cx="3" cy="0" r="2" fill="#d4af37"/>
  </g>
  
  <g transform="translate(520, 320)" opacity="0.5">
    <circle cx="0" cy="0" r="3" fill="#e8b4b8"/>
    <circle cx="6" cy="0" r="3" fill="#e8b4b8"/>
    <circle cx="3" cy="-5" r="3" fill="#e8b4b8"/>
    <circle cx="3" cy="5" r="3" fill="#e8b4b8"/>
    <circle cx="-3" cy="-3" r="3" fill="#e8b4b8"/>
    <circle cx="9" cy="-3" r="3" fill="#e8b4b8"/>
    <circle cx="3" cy="0" r="2" fill="#d4af37"/>
  </g>
</svg>